<?xml version="1.0" encoding="UTF-8" standalone="no"?>
<!-- Created with Inkscape (http://www.inkscape.org/) -->

<svg
   xmlns:dc="http://purl.org/dc/elements/1.1/"
   xmlns:cc="http://creativecommons.org/ns#"
   xmlns:rdf="http://www.w3.org/1999/02/22-rdf-syntax-ns#"
   xmlns:svg="http://www.w3.org/2000/svg"
   xmlns="http://www.w3.org/2000/svg"
   xmlns:sodipodi="http://sodipodi.sourceforge.net/DTD/sodipodi-0.dtd"
   xmlns:inkscape="http://www.inkscape.org/namespaces/inkscape"
   version="1.1"
   id="svg2"
   width="32"
   height="32"
   viewBox="0 0 32 32"
   sodipodi:docname="togglereferrer.svg"
   inkscape:version="0.92.2 2405546, 2018-03-11">
  <metadata
     id="metadata8">
    <rdf:RDF>
      <cc:Work
         rdf:about="">
        <dc:format>image/svg+xml</dc:format>
        <dc:type
           rdf:resource="http://purl.org/dc/dcmitype/StillImage" />
        <dc:title></dc:title>
      </cc:Work>
    </rdf:RDF>
  </metadata>
  <defs
     id="defs6" />
  <sodipodi:namedview
     pagecolor="#ffffff"
     bordercolor="#666666"
     borderopacity="1"
     objecttolerance="10"
     gridtolerance="10"
     guidetolerance="10"
     inkscape:pageopacity="0"
     inkscape:pageshadow="2"
     inkscape:window-width="1819"
     inkscape:window-height="1009"
     id="namedview4"
     showgrid="false"
     inkscape:zoom="13.882353"
     inkscape:cx="17.652995"
     inkscape:cy="11.655278"
     inkscape:window-x="154"
     inkscape:window-y="326"
     inkscape:window-maximized="0"
     inkscape:current-layer="svg2" />
  <path
     style="fill:#0c0c0d;fill-opacity:1;stroke-width:0.12653115;opacity:0.8"
     d="m 11.833316,16.547142 c -1.435115,0.330345 -2.6884845,0.502135 -4.5015517,0.85748 -0.3182822,8.82116 8.1109467,6.257898 4.5015517,-0.85748 z"
     id="path887"
     inkscape:connector-curvature="0" />
  <path
     style="fill:#0c0c0d;fill-opacity:1;stroke-width:0.12653115;opacity:0.8"
     d="m 11.727059,14.927746 c 0.163022,-1.212025 0.234906,-2.390116 0.881915,-3.48576 0.726548,-1.171168 0.944668,-2.2465704 0.827949,-4.0819044 C 13.224621,4.0218396 12.2159,1.8399015 10.58879,1.1993535 7.0697519,0.25455951 6.2140137,3.7929595 5.8256051,6.4084516 5.459196,7.8551137 5.9536735,14.282985 7.3026297,15.517066 8.7919731,15.305602 10.254104,15.098208 11.727026,14.927704 Z"
     id="path2890"
     inkscape:connector-curvature="0" />
  <path
     style="fill:#0c0c0d;fill-opacity:1;stroke-width:0.12902009;opacity:0.8"
     d="m 19.629073,24.485996 c 1.444537,0.410057 2.712129,0.649324 4.540284,1.104231 -0.129121,8.998743 -8.581132,5.956707 -4.540181,-1.104623 z"
     id="path891"
     inkscape:connector-curvature="0" />
  <path
     style="fill:#0c0c0d;fill-opacity:1;stroke-width:0.12902009;opacity:0.8"
     d="m 19.708467,22.849463 c -0.103804,-1.242665 -0.116566,-2.445967 -0.719252,-3.595075 -0.679804,-1.229976 -0.84675,-2.336334 -0.633709,-4.19941 0.387502,-3.3887 1.526726,-5.5589783 3.21661,-6.1278044 3.632196,-0.7815839 4.32209,2.8657584 4.583427,5.5492504 0.298909,1.492051 -0.534495,8.012684 -1.971569,9.200226 -1.505737,-0.291796 -2.984097,-0.578028 -4.475469,-0.827242 z"
     id="path2890-7"
     inkscape:connector-curvature="0" />
</svg>
